<svg id="artwork" xmlns="http://www.w3.org/2000/svg" viewBox="0 0 446 158"><metadata><?xpacket begin="﻿" id="W5M0MpCehiHzreSzNTczkc9d"?>
<x:xmpmeta xmlns:x="adobe:ns:meta/" x:xmptk="Adobe XMP Core 6.0-c002 79.164352, 2020/01/30-15:50:38        ">
   <rdf:RDF xmlns:rdf="http://www.w3.org/1999/02/22-rdf-syntax-ns#">
      <rdf:Description rdf:about=""
            xmlns:lr="http://ns.adobe.com/lightroom/1.0/"
            xmlns:dc="http://purl.org/dc/elements/1.1/"
            xmlns:xmp="http://ns.adobe.com/xap/1.0/"
            xmlns:xmpMM="http://ns.adobe.com/xap/1.0/mm/"
            xmlns:stEvt="http://ns.adobe.com/xap/1.0/sType/ResourceEvent#">
         <lr:hierarchicalSubject>
            <rdf:Bag>
               <rdf:li>open source identity</rdf:li>
               <rdf:li>open source identity|Herald</rdf:li>
               <rdf:li>open source identity|661330</rdf:li>
            </rdf:Bag>
         </lr:hierarchicalSubject>
         <dc:subject>
            <rdf:Bag>
               <rdf:li>open source identity</rdf:li>
               <rdf:li>Herald</rdf:li>
               <rdf:li>661330</rdf:li>
            </rdf:Bag>
         </dc:subject>
         <xmp:MetadataDate>2020-10-16T15:00:25-07:00</xmp:MetadataDate>
         <xmpMM:InstanceID>xmp.iid:a4def673-2a70-4a1e-b5d0-3210d4dc7172</xmpMM:InstanceID>
         <xmpMM:DocumentID>xmp.did:4659a763-170f-4e21-8eca-62159133a524</xmpMM:DocumentID>
         <xmpMM:OriginalDocumentID>xmp.did:4659a763-170f-4e21-8eca-62159133a524</xmpMM:OriginalDocumentID>
         <xmpMM:History>
            <rdf:Seq>
               <rdf:li>
                  <rdf:Description>
                     <stEvt:action>saved</stEvt:action>
                     <stEvt:instanceID>xmp.iid:4659a763-170f-4e21-8eca-62159133a524</stEvt:instanceID>
                     <stEvt:when>2020-10-16T15:00:17-07:00</stEvt:when>
                     <stEvt:softwareAgent>Adobe Bridge 2020 (Macintosh)</stEvt:softwareAgent>
                     <stEvt:changed>/metadata</stEvt:changed>
                  </rdf:Description>
               </rdf:li>
               <rdf:li>
                  <rdf:Description>
                     <stEvt:action>saved</stEvt:action>
                     <stEvt:instanceID>xmp.iid:a4def673-2a70-4a1e-b5d0-3210d4dc7172</stEvt:instanceID>
                     <stEvt:when>2020-10-16T15:00:25-07:00</stEvt:when>
                     <stEvt:softwareAgent>Adobe Bridge 2020 (Macintosh)</stEvt:softwareAgent>
                     <stEvt:changed>/metadata</stEvt:changed>
                  </rdf:Description>
               </rdf:li>
            </rdf:Seq>
         </xmpMM:History>
      </rdf:Description>
   </rdf:RDF>
</x:xmpmeta>
                                                                                                    
                                                                                                    
                                                                                                    
                                                                                                    
                                                                                                    
                                                                                                    
                                                                                                    
                                                                                                    
                                                                                                    
                                                                                                    
                                                                                                    
                                                                                                    
                                                                                                    
                           
<?xpacket end="w"?></metadata>
<defs><style>.cls-1{fill:#706f73;}.cls-2{fill:#727174;}.cls-3{fill:#fff;}.cls-4{fill:#ec7700;}.cls-5{fill:#794499;}.cls-6{fill:#1e4488;}</style></defs><path class="cls-1" d="M206.08,58.19V99.41H201.4V80.63H177.1V99.41h-4.68V58.19h4.68v18h24.3v-18Z"/><path class="cls-1" d="M222.1,62.63V76.19h22.38v4.44H222.1V95h24.84v4.44H217.36V58.19h29.58v4.44Z"/><path class="cls-1" d="M285.31,77.63a13.18,13.18,0,0,1-4.59,4.62,16,16,0,0,1-6.6,2.22l10.5,14.94h-5.34L268.84,84.59h-9.12V99.41H255V58.19h16.74a17.43,17.43,0,0,1,7.68,1.68A13.45,13.45,0,0,1,285,64.58a12.58,12.58,0,0,1,.36,13Zm-25.59,2.52h11.22a13.23,13.23,0,0,0,8.19-2.34,8.21,8.21,0,0,0,0-12.84,13.23,13.23,0,0,0-8.19-2.34H259.72Z"/><path class="cls-1" d="M321.82,90.05h-23l-4.14,9.36h-5.1l18.18-41.22h5.1l18.18,41.22H326Zm-1.92-4.44L310.36,64l-9.6,21.66Z"/><path class="cls-1" d="M364.48,95v4.44H337.3V58.19H342V95Z"/><path class="cls-1" d="M370.72,58.19h13.92a24.64,24.64,0,0,1,11.55,2.64,19.73,19.73,0,0,1,7.92,7.32,21.27,21.27,0,0,1,0,21.27,19.66,19.66,0,0,1-7.92,7.35,24.64,24.64,0,0,1-11.55,2.64H370.72Zm13.92,37a19.22,19.22,0,0,0,9.09-2.1A15.65,15.65,0,0,0,400,87.23a17,17,0,0,0,0-16.89,15.72,15.72,0,0,0-6.24-5.79,19.22,19.22,0,0,0-9.09-2.1H375.4v32.7Z"/><path class="cls-2" d="M93.05,25.47A52.5,52.5,0,1,0,145.55,78,52.5,52.5,0,0,0,93.05,25.47Zm.18,98.09A45.75,45.75,0,1,1,139,77.81,45.75,45.75,0,0,1,93.23,123.56Z"/><circle class="cls-3" cx="93.23" cy="77.81" r="45.75"/><rect class="cls-4" x="64.6" y="66.89" width="2.77" height="3" transform="translate(-23.39 36.08) rotate(-26.15)"/><rect class="cls-4" x="69.57" y="64.45" width="2.77" height="3" transform="translate(-21.8 38.02) rotate(-26.15)"/><rect class="cls-4" x="59.63" y="69.33" width="2.77" height="3" transform="translate(-24.96 34.11) rotate(-26.13)"/><path class="cls-4" d="M56.62,71.31,55,72.1a11,11,0,1,0-.12,11.83l1.71.82,1.3-2.7-1.72-.83a10.85,10.85,0,0,0,.06-6.38L58,74Z"/><rect class="cls-4" x="59.54" y="83.82" width="3" height="2.8" transform="translate(-42.21 103.32) rotate(-64.33)"/><rect class="cls-4" x="69.62" y="88.67" width="3" height="2.8" transform="translate(-40.86 115.15) rotate(-64.33)"/><rect class="cls-4" x="64.58" y="86.24" width="3" height="2.8" transform="translate(-41.54 109.23) rotate(-64.33)"/><rect class="cls-5" x="95.34" y="46.11" width="3.2" height="3" transform="translate(-5.27 82.49) rotate(-45)"/><rect class="cls-5" x="99.85" y="41.59" width="3.2" height="3" transform="translate(-0.75 84.36) rotate(-45)"/><rect class="cls-5" x="99.82" y="110.65" width="3" height="3.08" transform="translate(-49.74 106.36) rotate(-45.71)"/><rect class="cls-5" x="95.4" y="106.34" width="3" height="3.09" transform="translate(-47.99 101.95) rotate(-45.72)"/><rect class="cls-5" x="102.63" y="71.56" width="3" height="3.08" transform="matrix(0.54, -0.84, 0.84, 0.54, -13.68, 121.14)"/><rect class="cls-5" x="112.99" y="78.22" width="3" height="3.08" transform="translate(-14.53 132.91) rotate(-57.25)"/><rect class="cls-5" x="107.81" y="74.89" width="3" height="3.08" transform="translate(-14.1 127.05) rotate(-57.26)"/><rect class="cls-5" x="97.45" y="68.23" width="3" height="3.08" transform="translate(-13.26 115.26) rotate(-57.25)"/><rect class="cls-5" x="123.35" y="84.88" width="3" height="3.08" transform="translate(-15.37 144.7) rotate(-57.26)"/><rect class="cls-5" x="118.17" y="81.55" width="3" height="3.08" transform="translate(-14.94 138.82) rotate(-57.26)"/><rect class="cls-5" x="118.75" y="69.76" width="3.13" height="3" transform="translate(-19.23 80.34) rotate(-34.36)"/><rect class="cls-5" x="104.38" y="79.51" width="3.13" height="3" transform="translate(-27.24 73.91) rotate(-34.35)"/><rect class="cls-5" x="113.59" y="73.29" width="3.13" height="3" transform="translate(-22.12 78.05) rotate(-34.36)"/><rect class="cls-5" x="99.22" y="83.04" width="3.13" height="3" transform="translate(-30.13 71.64) rotate(-34.36)"/><rect class="cls-5" x="94.06" y="86.57" width="3.13" height="3" transform="translate(-33.02 69.34) rotate(-34.36)"/><rect class="cls-5" x="123.91" y="66.24" width="3.13" height="3" transform="translate(-16.33 82.64) rotate(-34.36)"/><path class="cls-5" d="M83.62,71.22a11,11,0,0,0,8.52-4l2.12,1.36L95.88,66l-2.18-1.4a11,11,0,0,0-1-10.63l1.92-1.92-2.12-2.12-1.82,1.83a11,11,0,1,0-7,19.45Z"/><path class="cls-5" d="M95,95.62a11,11,0,1,0-4.06,8.53l1.61,1.57,2.1-2.14L93,102A10.9,10.9,0,0,0,95,95.62Z"/><circle class="cls-6" cx="111.59" cy="121.62" r="11" transform="translate(-43.48 178.17) rotate(-67.5)"/><circle class="cls-6" cx="111.59" cy="33.58" r="11" transform="translate(-4.73 26.54) rotate(-13.28)"/><circle class="cls-6" cx="137.02" cy="60.22" r="11" transform="translate(-2.45 114.52) rotate(-45)"/><circle class="cls-6" cx="137.02" cy="95.62" r="11" transform="translate(-27.48 124.89) rotate(-45)"/></svg>